<svg id="Flat" height="512" viewBox="0 0 64 64" width="512" xmlns="http://www.w3.org/2000/svg"><path d="m16.5714 25.4286h12a0 0 0 0 1 0 0v33.1428a6 6 0 0 1 -6 6 6 6 0 0 1 -6-6v-33.1428a0 0 0 0 1 0 0z" fill="#efefff" transform="matrix(0 1 -1 0 67.571 22.429)"/><circle cx="42.143" cy="45" fill="#c3c3dc" r="6"/><path d="m48.1426 45.0054a3.9416 3.9416 0 0 0 -3.9562-4.095h-6.4253a5.9717 5.9717 0 0 0 -1.6182 4.0947z" fill="#efefff"/><path d="m36.1429 45a5.9951 5.9951 0 0 0 .2782 1.8072h6.9715a2.0966 2.0966 0 0 0 2.0967-2.0966h-9.3318c-.0046.0965-.0146.1917-.0146.2894z" fill="#efefff"/><path d="m44.0479 40.91h-6.2868a5.9858 5.9858 0 0 0 -1.34 5.8968h6.9715a2.6208 2.6208 0 0 1 -2.6207-2.6208 3.2759 3.2759 0 0 1 3.276-3.276z" fill="#ddddf0"/><path d="m46.4074 14h-30.8148v18a60.4224 60.4224 0 0 0 15.4074 2 60.41 60.41 0 0 0 15.4074-2z" fill="#373c4b"/><path d="m57 14-26 11-26-11 26-11z" fill="#465064"/><path d="m57 13h-26a1 1 0 0 0 0 2h25v16a1 1 0 0 0 2 0v-17a1 1 0 0 0 -1-1z" fill="#ffe300"/><path d="m57 34a3.26 3.26 0 0 0 -3.2491 2.99l-.7509 9.01h8l-.7509-9.01a3.26 3.26 0 0 0 -3.2491-2.99z" fill="#ffe300"/><circle cx="57" cy="32" fill="#fff089" r="2"/><path d="m19.008 45 5.46 1.987-5.465 15.013-1.984-3.041-3.475 1.054z" fill="#ff3d46"/><path d="m26.992 45-5.46 1.987 5.465 15.013 1.984-3.041 3.475 1.054z" fill="#ff3d46"/><circle cx="23" cy="45" fill="#ff6e81" r="8"/><circle cx="23" cy="45" fill="#ffe300" r="6"/></svg>