<svg id="Capa_1" enable-background="new 0 0 511.992 511.992" height="512" viewBox="0 0 511.992 511.992" width="512" xmlns="http://www.w3.org/2000/svg"><g><g><g><path d="m452.929 453.198h-200.196c0-38.036 6.272-83.827 9.257-103.507.98-6.413 4.752-12.084 10.317-15.423 10.6-6.351 21.792-11.386 32.347-15.334 19.504-7.323 36.843-10.936 44.298-12.278 2.57-.468 5.185-.468 7.756 0 7.455 1.343 24.795 4.955 44.299 12.278 10.556 3.948 21.747 8.983 32.347 15.334 5.565 3.339 9.337 9.01 10.317 15.423 2.986 19.68 9.258 65.472 9.258 103.507z" fill="#5766cb"/><path d="m321.27 365.078s13.152 23.822 31.559 36.919c18.407-13.097 31.559-36.919 31.559-36.919v-39.935h-63.118z" fill="#ecf4ff"/><path d="m370.29 385.298c-4.894 5.883-10.838 11.987-17.463 16.704-6.625-4.717-12.57-10.821-17.463-16.704l17.463-16.792z" fill="#d57080"/><path d="m321.27 338.163 31.561 30.342 31.561-30.342" fill="#d57080"/><path d="m301.483 394.431s-9.354 33.478-9.354 58.767h-39.396c0-38.036 6.272-83.827 9.257-103.507.98-6.413 4.752-12.084 10.317-15.423 31.181 16.041 29.176 60.163 29.176 60.163z" fill="#ecf4ff"/><path d="m452.928 453.198h-39.387c0-25.289-9.354-58.767-9.354-58.767s-2.005-44.122 29.167-60.163c5.565 3.339 9.337 9.01 10.317 15.423 2.986 19.68 9.257 65.472 9.257 103.507z" fill="#ecf4ff"/><path d="m306.96 453.198h-14.84c0-25.289 9.354-58.767 9.354-58.767s.23 33.107 5.486 58.767z" fill="#3d4fc3"/><g fill="#ddeafb"><path d="m430.218 453.198h-16.677c0-25.289-9.354-58.767-9.354-58.767s25.422 13.197 26.031 58.767z"/><path d="m272.307 334.268c5.689-3.41 11.554-6.439 17.393-9.125-4.302 3.613-7.226 9.681-7.985 16.536-2.332 21.209-7.243 70.542-7.243 111.519h-21.739c0-38.036 6.272-83.827 9.257-103.507.981-6.413 4.752-12.084 10.317-15.423z"/><path d="m401.007 318.934-16.615 46.145-31.561-30.342-31.561 30.342-16.615-46.145c19.504-7.323 36.843-10.936 44.298-12.278 2.57-.468 5.185-.468 7.756 0 7.455 1.342 24.794 4.955 44.298 12.278z"/></g><path d="m470.678 187.33-172.996 2.456-70.578 1.004s-35.446-51.826-24.703-102.479c10.743-50.641 75.973-19.949 75.973-19.949s35.482-54.173 82.288-54.173c69.549 0 98.825 66.452 130.291 42.668.001 0 41.266 78.005-20.275 130.473z" fill="#9d6b6b"/><path d="m297.682 189.786-70.578 1.004s-35.446-51.826-24.703-102.479c10.743-50.641 75.973-19.949 75.973-19.949s-22.368 37.394 18.171 67.239c13.077 9.617 10.561 30.425 1.137 54.185z" fill="#8b5e5e"/><path d="m376.792 270.76v40.016c0 13.23-10.729 23.959-23.959 23.959-13.238 0-23.966-10.729-23.966-23.959v-40.016z" fill="#ffddce"/><path d="m360.658 333.428c-2.451.844-5.083 1.305-7.823 1.305-13.238 0-23.966-10.729-23.966-23.959v-40.016h15.646v40.016c-.001 10.498 6.748 19.417 16.143 22.654z" fill="#ffcbbe"/><path d="m252.73 237.44c-17.276 0-31.281-14.005-31.281-31.281 0-2.378.265-4.693.768-6.919 4.058-17.972 30.514-15.025 30.514 3.4h200.201c0-18.425 26.456-21.372 30.514-3.4.503 2.226.768 4.542.768 6.919 0 17.276-14.005 31.281-31.281 31.281" fill="#ffcbbe"/><path d="m328.867 270.76h47.925v36.865h-47.925z" fill="#ffcbbe"/><path d="m452.931 165.893v56.085c0 40.297-32.664 72.961-72.961 72.961h-54.282c-40.297 0-72.961-32.664-72.961-72.961v-56.085c25.853 0 46.818-20.953 46.818-46.806 0 0 .375.351 1.113.992 7.839 6.763 57.258 45.814 152.273 45.814z" fill="#ffddce"/><path d="m373.619 294.938h-47.931c-40.297 0-72.961-32.664-72.961-72.961v-56.085c25.853 0 46.818-20.953 46.818-46.806 0 0 .375.351 1.113.992v101.898c0 40.299 32.664 72.962 72.961 72.962z" fill="#ffcbbe"/><g fill="#eaafa5"><ellipse cx="418.865" cy="220.099" rx="16.386" ry="9.964"/><ellipse cx="286.796" cy="220.099" rx="16.386" ry="9.964"/></g></g><g><path d="m136.923 14.189c71.478 0 129.423 57.945 129.423 129.423v122.842c0 34.717-22.107 65.579-54.977 76.751l-74.446 25.302-74.446-25.302c-32.87-11.171-54.977-42.034-54.977-76.751v-122.843c.001-71.478 57.945-129.422 129.423-129.422z" fill="#e4936b"/><path d="m105.384 343.205 31.539 25.3-74.44-25.3c-32.87-11.169-54.983-42.038-54.983-76.748v-122.845c0-71.478 57.944-129.423 129.423-129.423-30.28 0-54.829 57.944-54.829 129.423v122.846c0 34.709 9.369 65.578 23.29 76.747z" fill="#e27d47"/><g><path d="m237.027 453.198h-200.196c0-38.036 6.272-83.827 9.257-103.507.98-6.413 4.752-12.084 10.317-15.423 10.6-6.351 21.792-11.386 32.347-15.334 19.504-7.323 36.843-10.936 44.299-12.278 2.57-.468 5.185-.468 7.756 0 7.455 1.343 24.795 4.955 44.299 12.278 10.556 3.948 21.747 8.983 32.347 15.334 5.565 3.339 9.337 9.01 10.317 15.423 2.985 19.68 9.257 65.472 9.257 103.507z" fill="#5766cb"/><path d="m105.368 365.078s13.152 23.822 31.559 36.919c18.407-13.097 31.559-36.919 31.559-36.919v-39.935h-63.119v39.935z" fill="#ecf4ff"/><path d="m154.388 385.298c-4.894 5.883-10.838 11.987-17.463 16.704-6.625-4.717-12.57-10.821-17.463-16.704l17.463-16.792z" fill="#d57080"/><path d="m105.368 338.163 31.561 30.342 31.561-30.342" fill="#d57080"/><path d="m85.581 394.431s-9.354 33.478-9.354 58.767h-39.396c0-38.036 6.272-83.827 9.257-103.507.98-6.413 4.752-12.084 10.317-15.423 31.181 16.041 29.176 60.163 29.176 60.163z" fill="#ecf4ff"/><path d="m237.026 453.198h-39.387c0-25.289-9.354-58.767-9.354-58.767s-2.005-44.122 29.167-60.163c5.565 3.339 9.337 9.01 10.317 15.423 2.986 19.68 9.257 65.472 9.257 103.507z" fill="#ecf4ff"/><path d="m91.058 453.198h-14.84c0-25.289 9.354-58.767 9.354-58.767s.23 33.107 5.486 58.767z" fill="#3d4fc3"/><g fill="#ddeafb"><path d="m214.316 453.198h-16.677c0-25.289-9.354-58.767-9.354-58.767s25.422 13.197 26.031 58.767z"/><path d="m56.405 334.268c5.689-3.41 11.554-6.439 17.393-9.125-4.302 3.613-7.226 9.681-7.985 16.536-2.332 21.209-7.243 70.542-7.243 111.519h-21.739c0-38.036 6.272-83.827 9.257-103.507.981-6.413 4.752-12.084 10.317-15.423z"/><path d="m185.105 318.934-16.615 46.145-31.561-30.342-31.561 30.342-16.615-46.145c19.504-7.323 36.843-10.936 44.299-12.278 2.57-.468 5.185-.468 7.756 0 7.454 1.342 24.793 4.955 44.297 12.278z"/></g></g><path d="m160.89 270.759v40.016c0 13.23-10.729 23.959-23.959 23.959-13.238 0-23.966-10.729-23.966-23.959v-40.016z" fill="#ffddce"/><path d="m144.755 333.428c-2.451.844-5.083 1.305-7.823 1.305-13.238 0-23.966-10.729-23.966-23.959v-40.016h15.646v40.016c0 10.498 6.749 19.416 16.143 22.654z" fill="#ffcbbe"/><path d="m112.965 270.759h47.925v36.865h-47.925z" fill="#ffcbbe"/><path d="m237.024 167v54.984c0 40.29-32.662 72.959-72.958 72.959h-54.284c-40.29 0-72.958-32.662-72.958-72.959v-54.357c12.423-.361 29.518-2.48 47.932-6.222 37.737-7.671 81.055-22.171 101.207-42.323 0 0 19.935 40.736 51.061 47.918z" fill="#ffddce"/><path d="m157.714 294.942h-47.932c-40.29 0-72.958-32.662-72.958-72.959v-54.357c12.423-.361 29.518-2.48 47.932-6.222v60.579c-.001 40.29 32.661 72.959 72.958 72.959z" fill="#ffcbbe"/><g fill="#eaafa5"><ellipse cx="195.893" cy="227.168" rx="16.386" ry="9.964"/><ellipse cx="77.964" cy="227.168" rx="16.386" ry="9.964"/></g></g><path d="m38.703 452.788h422.353v45.016h-422.353z" fill="#8b5e5e"/><path d="m472.666 463.72h-445.572c-6.101 0-11.046-4.946-11.046-11.046v-14.044c0-6.101 4.946-11.046 11.046-11.046h445.571c6.101 0 11.046 4.946 11.046 11.046v14.044c.001 6.1-4.945 11.046-11.045 11.046z" fill="#9d6b6b"/></g><g><path d="m305.893 204.336c5.226 0 9.478-7.049 9.478-15.713s-4.252-15.713-9.478-15.713c-5.227 0-9.479 7.049-9.479 15.713s4.253 15.713 9.479 15.713z"/><path d="m399.769 204.336c5.226 0 9.478-7.049 9.478-15.713s-4.252-15.713-9.478-15.713c-5.227 0-9.479 7.049-9.479 15.713s4.252 15.713 9.479 15.713z"/><path d="m352.831 255.298c7.075 0 13.726-2.755 18.728-7.757 2.929-2.929 2.929-7.678-.001-10.607-2.927-2.928-7.676-2.929-10.606 0-2.169 2.169-5.052 3.363-8.12 3.363-3.067 0-5.951-1.194-8.121-3.364-2.928-2.929-7.677-2.928-10.606 0-2.929 2.929-2.929 7.678.001 10.607 5 5.003 11.65 7.758 18.725 7.758z"/><path d="m457.137 244.708c19.413-2.104 34.577-18.586 34.577-38.549 0-2.89-.32-5.774-.953-8.571-1.128-4.999-3.631-9.177-7.044-12.245 21.4-22.236 30.937-50.937 27.638-83.68-2.742-27.205-13.328-47.465-13.777-48.314-1.028-1.944-2.857-3.338-5.005-3.814-2.145-.476-4.394.013-6.148 1.34-10.205 7.72-19.656 2.719-40.362-11.439-3.421-2.339-8.086-1.461-10.425 1.958-2.338 3.419-1.461 8.086 1.958 10.424 16.188 11.069 32.849 22.466 49.895 15.614 3.043 7.524 7.398 20.441 8.94 35.736 3.121 30.973-6.435 56.702-28.407 76.522-.722.018-1.452.066-2.188.148-1.904.212-3.705.648-5.408 1.243v-15.187c0-4.142-3.357-7.5-7.5-7.5-51.956 0-89.49-12.17-111.829-22.38-24.197-11.059-36.29-22.269-36.396-22.367-2.174-2.062-5.367-2.631-8.122-1.447-2.753 1.184-4.537 3.893-4.537 6.89 0 13.797-7.014 26.135-18.196 33.195v-8.671c0-28.057-8.488-54.167-23.024-75.906 13.139 2.256 24.217 7.369 24.364 7.438 1.026.483 2.114.714 3.188.714 2.462 0 4.853-1.215 6.278-3.392.332-.508 33.748-50.78 76.006-50.78 17.889 0 34.542 4.605 52.408 14.492 3.626 2.006 8.188.694 10.194-2.931 2.005-3.624.693-8.188-2.931-10.194-20.18-11.167-39.141-16.368-59.672-16.368-41.867 0-74.348 38.287-84.929 52.451-7.88-3.009-22.611-7.68-37.424-7.461-25.069-27.619-61.235-44.988-101.383-44.988-75.5 0-136.923 61.423-136.923 136.923v122.845c0 30.557 15.47 58.447 40.863 74.614-1.044 2.36-1.79 4.872-2.192 7.491-2.238 14.753-6.104 42.728-8.087 71.521h-3.489c-10.227 0-18.546 8.32-18.546 18.546v14.044c0 10.227 8.32 18.546 18.546 18.546h4.113v26.586c0 4.142 3.358 7.5 7.5 7.5h51.2c4.142 0 7.5-3.358 7.5-7.5s-3.358-7.5-7.5-7.5h-43.7v-19.085h407.35v19.086h-334.33c-4.142 0-7.5 3.358-7.5 7.5s3.358 7.5 7.5 7.5h341.83c4.143 0 7.5-3.358 7.5-7.5v-26.586h4.108c10.227 0 18.547-8.32 18.547-18.546v-14.044c0-10.227-8.32-18.546-18.547-18.546h-13.489c-1.982-28.789-5.848-56.767-8.089-71.535-1.331-8.67-6.387-16.219-13.877-20.716-9.927-5.946-21.224-11.302-33.569-15.917-6.311-2.365-12.798-4.507-19.348-6.408v-3.184c34.57-1.84 63.401-25.61 72.843-57.616zm3.294-42.069c0-6.765 5.886-7.763 7.065-7.895 1.18-.132 7.142-.454 8.633 6.148.388 1.715.584 3.487.584 5.266 0 10.61-6.986 19.617-16.599 22.67.192-2.26.312-4.54.312-6.849v-19.34zm-155.181-69.574c19.501 13.589 65.391 38.659 140.176 40.247v48.666c0 36.096-29.361 65.462-65.452 65.462h-54.283c-20.274 0-39.479-9.493-51.845-25.502v-92.824c15.706-6.579 27.172-19.914 31.404-36.049zm91.444 261.707c.025.566.116 1.129.269 1.675.035.124 2.887 10.415 5.378 23.636h-99.016c2.491-13.221 5.344-23.512 5.378-23.636.152-.546.243-1.109.269-1.675.022-.497.512-12.324-3.127-26.297-3.667-14.081-10.264-25.43-19.323-33.469 4.339-2.194 8.916-4.281 13.697-6.256l13.995 38.869c.136.377.309.732.499 1.076l-.013.007c.234.424 5.838 10.512 14.898 21.391 6.193 7.446 12.545 13.508 18.879 18.017 1.302.927 2.825 1.39 4.35 1.39s3.048-.463 4.35-1.39c6.334-4.509 12.686-10.571 18.876-18.014 9.063-10.883 14.668-20.97 14.901-21.394l-.006-.004c.191-.346.365-.702.502-1.08l13.996-38.87c4.777 1.974 9.354 4.061 13.699 6.258-9.059 8.039-15.655 19.387-19.323 33.468-3.64 13.974-3.151 25.801-3.128 26.298zm-306.756-26.297c-3.667-14.08-10.263-25.428-19.322-33.467 4.345-2.197 8.922-4.284 13.699-6.258l13.996 38.87c.136.377.309.732.499 1.077l-.012.007c.234.424 5.838 10.512 14.897 21.391 6.193 7.445 12.545 13.507 18.879 18.017 1.302.927 2.826 1.39 4.35 1.39s3.048-.463 4.35-1.39c6.334-4.51 12.686-10.572 18.876-18.014 9.062-10.883 14.667-20.97 14.9-21.394l-.007-.004c.191-.346.365-.702.501-1.08l13.995-38.869c4.781 1.975 9.358 4.061 13.698 6.256-9.059 8.039-15.656 19.388-19.323 33.469-3.639 13.973-3.15 25.8-3.127 26.297.026.566.116 1.129.269 1.675.034.124 2.887 10.415 5.378 23.636h-99.015c2.491-13.221 5.344-23.512 5.378-23.636.152-.546.243-1.109.269-1.675.022-.498.512-12.325-3.128-26.298zm17.136-47.793c2.562 7.699 8.018 14.085 15.077 17.858l-13.645 13.117-10.146-28.18c2.88-.983 5.788-1.913 8.714-2.795zm13.392-18.24h32.925v8.332c0 9.077-7.385 16.462-16.462 16.462s-16.462-7.385-16.462-16.462v-8.332zm16.459 55.66-6.74-6.479 6.744-6.483 6.74 6.48zm-17.562 3.925 6.74 6.479-5.85 5.625c-2.178-2.963-3.992-5.663-5.362-7.805zm17.562 16.883 7.084 6.811c-2.367 2.516-4.733 4.782-7.084 6.775-2.35-1.993-4.716-4.258-7.084-6.775zm16.671-4.779-5.85-5.625 6.744-6.483 4.471 4.298c-1.37 2.143-3.185 4.845-5.365 7.81zm-1.889-35.592c7.06-3.773 12.515-10.159 15.077-17.858 2.93.883 5.838 1.813 8.714 2.795l-10.146 28.18zm12.359-51.097h-54.285c-36.094 0-65.458-29.365-65.458-65.458v-47.226c20.715-1.446 48.07-6.472 72.096-13.356 21.201-6.074 48.876-16.078 67.536-30.602 7.458 12.147 23.372 33.907 45.569 41.805v49.38c0 36.092-29.364 65.457-65.458 65.457zm37.622 132.641c-2.315-12.958-5.081-23.588-5.929-26.739-.024-2.592.115-11.474 2.771-21.462 3.457-12.999 9.598-22.564 18.281-28.513 1.857 2.055 3.11 4.622 3.543 7.442 2.175 14.339 5.915 41.369 7.889 69.272zm41.592 0c-1.992-28.803-5.859-56.775-8.098-71.536-.402-2.615-1.148-5.125-2.191-7.482 20.927-13.33 35.109-34.62 39.447-58.801 13.503 11.901 30.749 19.069 48.931 20.054v3.189c-6.57 1.906-13.056 4.048-19.339 6.405-12.379 4.627-23.677 9.984-33.581 15.923-7.483 4.493-12.54 12.042-13.873 20.726-2.237 14.748-6.104 42.719-8.095 71.521h-3.201zm109.547-61.981-6.74-6.479 6.744-6.484 6.74 6.48zm-17.562 3.926 6.74 6.479-5.85 5.625c-2.178-2.963-3.992-5.663-5.362-7.805zm17.562 16.882 7.083 6.811c-2.368 2.516-4.733 4.782-7.083 6.775-2.35-1.993-4.715-4.258-7.083-6.775zm16.671-4.778-5.85-5.625 6.744-6.483 4.471 4.299c-1.37 2.141-3.185 4.844-5.365 7.809zm-45.089-22.475-10.147-28.18c2.875-.981 5.784-1.911 8.714-2.795 2.562 7.699 8.017 14.085 15.077 17.858zm-55.005-.832c.435-2.83 1.688-5.4 3.545-7.456 8.682 5.949 14.825 15.514 18.281 28.513 2.658 9.997 2.795 18.887 2.771 21.461-.848 3.149-3.615 13.78-5.93 26.74h-26.555c1.975-27.903 5.715-54.932 7.888-69.258zm111.849.832-13.645-13.117c7.06-3.773 12.516-10.159 15.077-17.858 2.925.882 5.833 1.812 8.714 2.795zm-11.96-40.883c0 9.076-7.382 16.459-16.458 16.462-.003 0-.007 0-.01 0-9.075-.003-16.457-7.386-16.457-16.462v-8.333h32.925zm-354.293-44.317v-122.845c0-67.229 54.694-121.923 121.923-121.923s121.923 54.694 121.923 121.923v122.845c0 25.934-13.414 49.568-35.333 62.852-.711-.519-1.442-1.017-2.205-1.475-9.901-5.937-21.199-11.294-33.569-15.918-6.29-2.36-12.778-4.502-19.348-6.408v-3.185c42.361-2.255 76.133-37.425 76.133-80.339v-54.984c0-3.493-2.411-6.523-5.814-7.308-27.22-6.28-45.83-43.538-46.011-43.906-1.065-2.176-3.115-3.703-5.504-4.101-2.388-.399-4.823.381-6.536 2.095-28.534 28.534-108.947 45.343-144.052 46.352-4.057.116-7.285 3.438-7.285 7.497v54.356c0 42.917 33.778 78.09 76.144 80.34v3.183c-6.55 1.901-13.036 4.043-19.342 6.406-12.354 4.618-23.649 9.974-33.582 15.923-.763.458-1.494.956-2.205 1.476-21.922-13.281-35.337-36.915-35.337-62.856zm38.499 84.368c.435-2.83 1.689-5.401 3.544-7.456 8.683 5.949 14.824 15.514 18.281 28.513 2.659 9.997 2.796 18.887 2.772 21.461-.848 3.149-3.614 13.78-5.93 26.74h-26.547c1.966-27.893 5.706-54.927 7.88-69.258zm422.713 87.804v14.044c0 1.956-1.591 3.546-3.547 3.546h-445.571c-1.956 0-3.546-1.591-3.546-3.546v-14.044c0-1.956 1.591-3.546 3.546-3.546h445.571c1.957 0 3.547 1.591 3.547 3.546zm-32.071-18.546h-26.548c-2.315-12.958-5.081-23.588-5.93-26.739-.023-2.592.115-11.474 2.771-21.462 3.458-13 9.599-22.565 18.282-28.513 1.856 2.055 3.109 4.622 3.542 7.442 2.177 14.346 5.917 41.383 7.883 69.272z"/><path d="m91.566 180.886c-.329 0-11.345.083-11.812.087-3.12 0-5.657 2.538-5.657 5.657s2.538 5.657 5.657 5.657h2.591c-.253 1.439-.382 2.93-.382 4.437 0 8.733 4.308 15.838 9.603 15.838s9.603-7.105 9.603-15.838c-.001-8.733-4.308-15.838-9.603-15.838z"/><path d="m194.093 180.973c-.519-.004-12.205-.087-12.533-.087-5.295 0-9.603 7.105-9.603 15.838s4.308 15.838 9.603 15.838 9.603-7.105 9.603-15.838c0-1.506-.128-2.996-.382-4.437h3.312c3.12 0 5.658-2.538 5.658-5.657-.001-3.119-2.539-5.657-5.658-5.657z"/><path d="m144.381 237.348c-4.111 4.112-10.802 4.113-14.916 0-2.929-2.929-7.678-2.928-10.606 0-2.929 2.929-2.929 7.678 0 10.607 4.98 4.98 11.522 7.47 18.064 7.47s13.084-2.49 18.064-7.47c2.929-2.929 2.929-7.678 0-10.607-2.928-2.929-7.677-2.928-10.606 0z"/></g></g></svg>